<?xml version="1.0" encoding="UTF-8"?>
<svg width="588.14" height="694.97" data-name="Layer 1" version="1.1" viewBox="0 0 588.14 694.97" xmlns="http://www.w3.org/2000/svg">
 <path transform="translate(-305.93 -102.52)" d="M562.42036,761.875l-1.87,8.18.45.49c-.1.25-.2.5-.32.75a57.644,57.644,0,0,1-3.4,6.52c-1.68,2.79-3.56,5.48-5.51,8.12-1.07,1.46-2.17,2.91-3.27,4.35a1.20684,1.20684,0,0,1-.1.14.87877.87877,0,0,1,.05-.15l-.36-.08-2.07-8.98-.63,1.42v.01l-1.02,2.35c.08.43.16.85.26,1.27-.01-.01-.01-.03-.02-.04-.01-.01-.01-.01-.01-.02-.13-.28-.27-.55-.4-.83l-1.56,3.58-3.16-.72c-1.66-.86-3.32-1.73-4.97-2.63-22.54-12.23-43.41-27.84-57.46-49.09a96.90444,96.90444,0,0,1-12.51-27.53c-5.33-19.42-4.41-40.32,5.29-57.67a.0098.0098,0,0,1,.01-.01q.36-.66.75-1.32c.19.5.37,1,.57,1.5v.01a136.268,136.268,0,0,0,9.41,19.65c.28.49.56.98.86,1.46a140.97617,140.97617,0,0,0,34.32,38.94,1.05944,1.05944,0,0,0,.12.1,1.43666,1.43666,0,0,0,.15.11q4.59,3.6,9.49,6.77v.01c2.55,1.66,5.17,3.23,7.83,4.72,5.67,3.16,11.84,6.2,17.14,9.99,5.15,3.67,9.49,8.04,11.8,13.89.18.47.35.94.5,1.41l-4.12,12.71Z" fill="#f0f0f0"/>
 <g fill="#fff">
  <path transform="translate(-305.93 -102.52)" d="M545.39039,782.635v.01l-1.02,2.35c-1.54-8.56.29-17.61-.98-26.28-.14-.97-.32-1.94-.55-2.9-1.30005-5.48-4.27-10.61-9.55005-13.06a21.8476,21.8476,0,0,0-4.81995-1.55c-3.28-.7-6.7-.85-10.01-1.24-.83-.1-1.65-.21-2.45-.36005a30.08933,30.08933,0,0,1-11.98-4.63,47.71988,47.71988,0,0,1-11.4-11.46,102.33333,102.33333,0,0,1-5.75-8.66c-.24-.38-.46-.77-.69-1.16a121.34464,121.34464,0,0,1-10.13-22.6,118.53179,118.53179,0,0,1-3.36-12.24,121.36825,121.36825,0,0,1-2.87-27.54.0098.0098,0,0,1,.01-.01c-.01-.42,0-.84.01-1.26.02-.86,1.35-.67,1.33.19-.01.42-.02.83-.02,1.25v.01a120.88811,120.88811,0,0,0,2.67,26.4c.1.44.2.88.29,1.32a119.7122,119.7122,0,0,0,13.47,34.19c.07.12.13995.24.22.36,1.45,2.47,3.01,4.87,4.65,7.22a51.89835,51.89835,0,0,0,10.98,11.92,28.66609,28.66609,0,0,0,12.16,5.27c.43995.08.88.16,1.33.23.35.06.71.11,1.07.15,3.37.42,6.83.58,10.18,1.22a26.991,26.991,0,0,1,4.47,1.25,18.15217,18.15217,0,0,1,10.32,10.68,31.58305,31.58305,0,0,1,1.81995,7.25c.11.81.19,1.62.26,2.44v.01c.1,1.31995.15,2.65.17,3.98.02,1.66-.01,3.32-.05005,4.97A85.3029,85.3029,0,0,0,545.39039,782.635Z"/>
  <path transform="translate(-305.93 -102.52)" d="m487.45 714.58a18.018 18.018 0 0 1-22.694-5.4158c-0.50869-0.69934 0.55415-1.5227 1.0635-0.82241a16.684 16.684 0 0 0 21.121 4.9947c0.76923-0.39533 1.2749 0.85047 0.51 1.2435z"/>
  <path transform="translate(-305.93 -102.52)" d="m515.47 738.57a34.728 34.728 0 0 0-1.2295-25.279c-0.35484-0.78953 0.88912-1.2986 1.2435-0.51005a36.123 36.123 0 0 1 1.2259 26.308c-0.27855 0.82057-1.517 0.29746-1.24-0.51865z"/>
  <path transform="translate(-305.93 -102.52)" d="m473.44 678.02a10.199 10.199 0 0 0 7.0224-6.6592c0.268-0.8237 1.5062-0.29968 1.24 0.51865a11.429 11.429 0 0 1-7.7523 7.3841 0.6946 0.6946 0 0 1-0.87679-0.36674 0.67543 0.67543 0 0 1 0.36674-0.87679z"/>
 </g>
 <path transform="translate(-305.93 -102.52)" d="M548.34041,790.505c.01995-.03.04-.05.06-.08-.04.12-.08.24-.11.37Z" fill="#f0f0f0"/>
 <path transform="translate(-305.93 -102.52)" d="M578.07039,728.945l-1.4,4.9-8.6-1.61-2.85,8.79-.49,1.51-1.95,6.01-4.12,12.71,3.76.62-1.87,8.18.45.49.14.15.93,1.02,5.66,6.18-15.48,13.25-2.48-.57-1.27-.29a1.20684,1.20684,0,0,1-.1.14.87877.87877,0,0,1,.05-.15l-.36-.08-2.07-8.98-.63,1.42v.01l-1.02,2.35c.08.43.16.85.26,1.27-.01-.01-.01-.03-.02-.04-.01-.01-.01-.01-.01-.02-.13-.28-.27-.55-.4-.83-1.98-4.13-3.87-8.32-5.62-12.56a184.48557,184.48557,0,0,1-10.11-31.61c-.1-.47-.21-.94-.29-1.42v-.01a131.23411,131.23411,0,0,1-2.67-21.24v-.01a114.85052,114.85052,0,0,1,.12-11.73,96.392,96.392,0,0,1,6.57-29.43c.02-.05.04-.09.06-.14,7.13-17.94,19.68-33.5,36.74-41.79.71-.36,1.44-.7,2.17-1.02h.02l.01-.01c.46-.2.91-.39,1.37-.59-.15.52-.31,1.04-.45,1.57a133.75043,133.75043,0,0,0-4.32,21.35v.01c-.08.55-.15,1.12-.21,1.68v.01a141.58428,141.58428,0,0,0,4.01995,51.96c.01.05.03.09.04.13995A135.98826,135.98826,0,0,0,578.07039,728.945Z" fill="#f0f0f0"/>
 <g fill="#fff">
  <path transform="translate(-305.93 -102.52)" d="M562.07039,771.715c-.79,1.06-1.6,2.09-2.42,3.12-.79.99-1.58,1.98-2.37,2.98a57.41827,57.41827,0,0,0-5.51,8.12,28.47175,28.47175,0,0,0-2,4.64l-1.27-.29a1.20684,1.20684,0,0,1-.1.14.87877.87877,0,0,1,.05-.15c2.33-7.28,7.63-12.92,12.23-18.98.16-.2.31-.4.46-.6Z"/>
  <path transform="translate(-305.93 -102.52)" d="M572.9004,634.375c-.26.33-.53.67-.78,1.01q-2.925,3.795-5.53,7.83a117.99176,117.99176,0,0,0-8.22,14.85c-.19.4-.38.81-.56,1.22a119.26327,119.26327,0,0,0-9.84,35.44c-.02.12-.03.23-.04.35q-.49494,4.29-.64,8.61a51.7824,51.7824,0,0,0,1.59,16.12c.2.69.42,1.37.66,2.03a27.34479,27.34479,0,0,0,2.25,4.65,27.9227,27.9227,0,0,0,2.14,3.09c.47.6.96,1.19,1.48,1.76.3.33.61.66.92.99.26.25.51.51.77.76,2.7,2.62,5.68,5.05,8.12,7.94l-.49,1.51c-2.35-2.98-5.38-5.45-8.11-8.05a37.89748,37.89748,0,0,1-4.66-5.28c-.18-.26-.37-.52-.54-.79a26.749,26.749,0,0,1-2.38995-4.29c-.34-.75-.65-1.52-.93-2.32a47.89267,47.89267,0,0,1-2.2-16,103.41482,103.41482,0,0,1,.62-10.39c.04-.45.09-.89.15-1.34a121.6383,121.6383,0,0,1,5.52-24.14,122.65961,122.65961,0,0,1,13.76-28.18q2.475-3.765,5.25-7.35c.24-.33.49-.65.75-.98C572.48036,632.745,573.43037,633.695,572.9004,634.375Z"/>
  <path transform="translate(-305.93 -102.52)" d="m547.15 695.54a18.018 18.018 0 0 1-14.859-17.988 0.67262 0.67262 0 0 1 1.3443-0.01634 16.684 16.684 0 0 0 13.857 16.704c0.8522 0.14748 0.50587 1.4466-0.34145 1.3z"/>
  <path transform="translate(-305.93 -102.52)" d="m555.07 731.57a34.728 34.728 0 0 0 14.238-20.924c0.192-0.844 1.4918-0.50157 1.3 0.34145a36.123 36.123 0 0 1-14.86 21.743c-0.71645 0.48747-1.3904-0.67584-0.67778-1.1607z"/>
  <path transform="translate(-305.93 -102.52)" d="M557.97177,657.91992a10.19909,10.19909,0,0,0,9.6163-1.08908c.70992-.49631,1.38308.66759.67778,1.16066a11.429,11.429,0,0,1-10.63553,1.2284.69462.69462,0,0,1-.47926-.82071.67543.67543,0,0,1,.82071-.47927Z"/>
 </g>
 <path transform="translate(-305.93 -102.52)" d="m700.53 214.44c-7.571-40.52 4.3487-86.619 37.479-111.15a189.92 189.92 0 0 0 39.593 124.24c10.634 13.63 23.881 27.683 23.47 44.966-0.25582 10.754-6.0718 20.772-13.736 28.32-7.6648 7.5477-17.106 12.989-26.435 18.346l-1.4521 2.2589c-27.346-30.845-51.348-66.464-58.919-106.98z" fill="#f0f0f0"/>
 <g fill="#fff">
  <path transform="translate(-305.93 -102.52)" d="m738.61 103.92a162.33 162.33 0 0 0-10.717 99.3c1.533 7.1473 3.7101 14.264 7.4024 20.614a40.094 40.094 0 0 0 15.147 14.692c5.7816 3.3407 12.082 6.0884 16.951 10.776 5.132 4.9414 7.4174 11.685 7.2268 18.732-0.23313 8.6212-3.5501 16.645-7.0665 24.378-3.9043 8.5865-8.0957 17.443-7.8424 27.097 0.03068 1.1697-1.786 1.1489-1.8167-0.019-0.44054-16.796 11.702-30.284 14.408-46.4 1.2625-7.52 0.26641-15.466-5.0205-21.295-4.6232-5.0973-11.118-7.9363-17.001-11.268-6.1774-3.4986-11.436-7.8211-15.345-13.814-3.9987-6.1299-6.4586-13.177-8.1676-20.253a157.49 157.49 0 0 1-3.5697-49.094 165.21 165.21 0 0 1 13.853-54.379c0.47608-1.0646 2.032-0.12431 1.559 0.93334z"/>
  <path transform="translate(-305.93 -102.52)" d="m725.02 192.59a24.355 24.355 0 0 1-25.409-18.681c-0.26554-1.1384 1.4909-1.6045 1.7568-0.4646a22.552 22.552 0 0 0 23.671 17.329c1.1658-0.08762 1.1401 1.7296-0.019 1.8167z"/>
  <path transform="translate(-305.93 -102.52)" d="m747.29 237.21a46.942 46.942 0 0 0 11.766-32.123c-0.02654-1.1697 1.7902-1.1493 1.8167 0.019a48.827 48.827 0 0 1-12.312 33.402c-0.77848 0.87521-2.0454-0.42758-1.2711-1.298z"/>
  <path transform="translate(-305.93 -102.52)" d="m726.81 139.71a13.786 13.786 0 0 0 12.247-4.598c0.767-0.88464 2.0331 0.41915 1.2711 1.298a15.448 15.448 0 0 1-13.537 5.1166 0.9389 0.9389 0 0 1-0.89883-0.91784 0.913 0.913 0 0 1 0.91785-0.89883z"/>
 </g>
 <path transform="translate(-305.93 -102.52)" d="m873.49 136.81c-0.46321 0.566-0.92643 1.132-1.3857 1.7129a181.56 181.56 0 0 0-16.617 24.316c-0.38711 0.65443-0.76957 1.3235-1.1371 1.9877a191.4 191.4 0 0 0-22.333 66.835 185.87 185.87 0 0 0-1.7041 28.19c0.20468 13.018 1.4624 27.117-2.528 39.09a31.886 31.886 0 0 1-1.436 3.676l-64.034 20.402c-0.1688-0.02666-0.33367-0.03856-0.50318-0.065l-2.5194 0.93148c-0.04157-0.48562-0.07425-0.99019-0.11582-1.4758-0.02529-0.2816-0.03631-0.56775-0.0616-0.84935-0.01233-0.18917-0.024-0.37866-0.04594-0.54866-0.00434-0.063-8e-3 -0.12613-0.00768-0.17455-0.022-0.17-0.02428-0.33024-0.04157-0.48562-0.19045-2.8199-0.36667-5.6444-0.51289-8.4784-0.00466-0.01462-0.00466-0.01462 5e-3 -0.03379-1.0991-21.584-0.40591-43.45 3.584-64.515 0.12025-0.63373 0.23513-1.2819 0.38464-1.9249a177.37 177.37 0 0 1 7.8437-27.861 156.8 156.8 0 0 1 6.3232-14.551 130.39 130.39 0 0 1 23.669-33.193c19.103-19.443 44.212-32.561 71.117-32.974 0.68819-0.01004 1.3629-0.01589 2.0558-0.01134z" fill="#f0f0f0"/>
 <g fill="#fff">
  <path transform="translate(-305.93 -102.52)" d="m873.61 137.67a162.33 162.33 0 0 0-68.342 72.833c-3.0791 6.6296-5.6257 13.623-6.5007 20.916a40.094 40.094 0 0 0 3.2484 20.85c2.6049 6.1483 5.9814 12.136 7.0464 18.81 1.1226 7.0352-1.113 13.796-5.5075 19.307-5.3767 6.7432-12.856 11.152-20.319 15.21-8.287 4.5052-16.966 9.0534-22.576 16.914-0.67972 0.95238-2.1178-0.158-1.4391-1.109 9.7604-13.676 27.577-17.135 39.44-28.374 5.5356-5.2442 9.5244-12.188 8.8126-20.026-0.62245-6.8534-4.0991-13.031-6.7904-19.233-2.8259-6.5127-4.4226-13.13-3.9358-20.268 0.4979-7.3019 2.7764-14.409 5.6726-21.089a157.49 157.49 0 0 1 26.708-41.348 165.21 165.21 0 0 1 43.801-35.078c1.0211-0.5634 1.6973 1.1242 0.68287 1.6839z"/>
  <path transform="translate(-305.93 -102.52)" d="m809.37 200.29a24.355 24.355 0 0 1-9.0406-30.214c0.47335-1.0688 2.1564-0.38344 1.6825 0.68678a22.552 22.552 0 0 0 8.4671 28.088c0.98355 0.6319-0.131 2.0674-1.109 1.4391z"/>
  <path transform="translate(-305.93 -102.52)" d="m800.28 249.33a46.942 46.942 0 0 0 28.735-18.565c0.68307-0.95 2.1213 0.16015 1.4391 1.109a48.827 48.827 0 0 1-29.941 19.257c-1.1485 0.23012-1.3757-1.5728-0.23342-1.8017z"/>
  <path transform="translate(-305.93 -102.52)" d="m842.64 159.14a13.786 13.786 0 0 0 12.547 3.7022c1.145-0.24456 1.371 1.5588 0.23342 1.8017a15.449 15.449 0 0 1-13.889-4.0648 0.93891 0.93891 0 0 1-0.16505-1.274 0.913 0.913 0 0 1 1.274-0.165z"/>
 </g>
 <path transform="translate(-305.93 -102.52)" d="m462.01 166.04c-3.5383-2.4976-7.4095-5.1021-11.739-4.998-10.479 0.252-16.129 15.614-26.598 15.074-6.676-0.34454-11.108-7.1265-17.324-9.5856-8.0928-3.2013-18.391 3.0597-19.274 11.718l1.0393-0.95123a250.93 250.93 0 0 0 96.135 4.4412q-11.119-7.849-22.239-15.698z" fill="#f0f0f0"/>
 <circle cx="175.68" cy="45.637" r="36.363" fill="#63dcb8"/>
 <path transform="translate(-305.93 -102.52)" d="m566.73 141.21c-4.5093-3.183-9.4428-6.5021-14.961-6.3694-13.355 0.32114-20.555 19.899-33.896 19.21-8.508-0.43908-14.156-9.0821-22.078-12.216-10.314-4.0798-23.438 3.8993-24.563 14.933l1.3245-1.2122a319.79 319.79 0 0 0 122.52 5.6599q-14.171-10.003-28.342-20.006z" fill="#f0f0f0"/>
 <path transform="translate(-305.93 -102.52)" d="m893.81 506.23-38.589-206.62a15.305 15.305 0 0 0-14.534-12.385q-0.46807-0.01041-0.93615 0l-26.288 0.943-2.8292 0.104-13.12 0.47152-2.8292 0.09709-8.4389 0.30511-170.17 6.1091c-0.25656 0.01384-0.52007 0.01384-0.77663 0.0069l-38.131-0.79741-14.111-0.29123-0.45074-0.00694-10.415-0.2219-90.755-1.8861-24.062-0.50618-11.864-0.24268-2.843-0.06243-13.529-0.27739-2.8361-0.06238-13.841-0.28433-2.8361-0.06238-15.207-0.319-2.3854-0.04855-13.563-0.28428-2.1426-0.0416h-0.312a15.263 15.263 0 0 0-14.992 12.745l-34.9 214.41a15.182 15.182 0 0 0 14.985 17.627h200.43a13.889 13.889 0 0 1 8.1963 2.7044l3.7999 2.8153a15.32 15.32 0 0 0 9.0353 2.9817h118.12a15.091 15.091 0 0 0 10.741-4.4518 13.778 13.778 0 0 1 9.0145-4.0149l199.23-10.498a15.183 15.183 0 0 0 14.132-17.953z" fill="#ccc"/>
 <path transform="translate(-305.93 -102.52)" d="m862.23 500.62-21.51-213.11c-0.00694-0.0901-0.02082-0.18719-0.03466-0.27734a13.533 13.533 0 0 0-4.7014-8.744l-46.272-38.547a12.276 12.276 0 0 0-7.1354-2.85c-21.17-1.3591-128.8-6.3934-168.52 28.091a10.936 10.936 0 0 1-8.8897 2.5518 11.136 11.136 0 0 1-7.7109-5.1729 45.57 45.57 0 0 0-13.002-13.258 69.163 69.163 0 0 0-7.2809-4.4171c-2.2259-1.1719-4.6459-2.3091-7.2809-3.4047-2.2675-0.94309-4.6875-1.8515-7.2809-2.7182-13.445-4.4934-31.419-7.8495-55.439-8.9729-9.9645-0.47153-20.796-0.53391-32.189-0.19414-10.401 0.30511-21.454 0.9361-32.847 1.8792l-0.16641 0.00694-77.088 47.063a13.431 13.431 0 0 0-6.2477 9.9576l-0.15952 1.4146-24.478 218.71a13.718 13.718 0 0 0 3.1551 10.408 12.585 12.585 0 0 0 9.5623 4.4656h189.94a11.178 11.178 0 0 1 6.9412 2.4616l8.2933 6.643a12.538 12.538 0 0 0 7.6069 2.7598l83.516 1.3661h0.20108a12.454 12.454 0 0 0 6.0258-1.5671l16.108-8.9452a11.121 11.121 0 0 1 4.7846-1.3868l180.01-9.5068a12.512 12.512 0 0 0 9.0769-4.6459 13.568 13.568 0 0 0 3.0095-10.062z" fill="#e6e6e6"/>
 <g fill="#fff">
  <path transform="translate(-305.93 -102.52)" d="m799.4 462.18-2.52-33.17-10.63-139.86-1.58-20.69a21.924 21.924 0 0 0-21.36-20.31c-38.95-1-109.48 0.76-144.09 23.95a19.188 19.188 0 0 1-25.11-3.1 55.807 55.807 0 0 0-16.94-12.65 95.548 95.548 0 0 0-14.56-5.86q-21.975-7.02-55.46-8.53l-52.98-0.31h-0.09a14.442 14.442 0 0 0-14.4 13.53l-2.3 36.37-10.05 159.5a21.975 21.975 0 0 0 21.63 23.36c88.93 1.32 127.78 20.09 144.72 35.59a21.967 21.967 0 0 0 26.9 2.18c30.75-20.14 81.87-25.74 122.56-26.61 12.46-0.26 23.94-0.09 33.56 0.25a21.974 21.974 0 0 0 22.7-23.64z"/>
  <path transform="translate(-305.93 -102.52)" d="m357.91 508.45c-0.03319 0-0.06777-0.00138-0.101-0.00415a1.4155 1.4155 0 0 1-1.3127-1.5118l15.301-216.05a1.3992 1.3992 0 0 1 1.5118-1.3127 1.4155 1.4155 0 0 1 1.3127 1.5119l-15.301 216.05a1.4153 1.4153 0 0 1-1.4109 1.3168z"/>
  <path transform="translate(-305.93 -102.52)" d="m376.33 499.95c-0.03319 0-0.06777-0.00138-0.101-0.00415a1.4155 1.4155 0 0 1-1.3127-1.5118l15.301-216.05a1.3992 1.3992 0 0 1 1.5118-1.3127 1.4155 1.4155 0 0 1 1.3127 1.5119l-15.301 216.05a1.4153 1.4153 0 0 1-1.4109 1.3168z"/>
  <path transform="translate(-305.93 -102.52)" d="m393.32 495.7c-0.0332 0-0.06778-0.00139-0.101-0.00415a1.4155 1.4155 0 0 1-1.3127-1.5119l15.301-216.05a1.3992 1.3992 0 0 1 1.5119-1.3127 1.4155 1.4155 0 0 1 1.3127 1.5118l-15.301 216.05a1.4153 1.4153 0 0 1-1.4109 1.3168z"/>
  <path transform="translate(-305.93 -102.52)" d="m410.32 487.2c-0.0332 0-0.06778-0.00139-0.101-0.00415a1.4155 1.4155 0 0 1-1.3127-1.5119l15.301-216.05a1.3992 1.3992 0 0 1 1.5119-1.3127 1.4155 1.4155 0 0 1 1.3127 1.5118l-15.301 216.05a1.4153 1.4153 0 0 1-1.4109 1.3168z"/>
  <path transform="translate(-305.93 -102.52)" d="m845.16 509.86c0.0332 0 0.06778-0.00138 0.101-0.00415a1.4155 1.4155 0 0 0 1.3127-1.5118l-15.301-216.05a1.3992 1.3992 0 0 0-1.5118-1.3127 1.4155 1.4155 0 0 0-1.3127 1.5119l15.301 216.05a1.4153 1.4153 0 0 0 1.4109 1.3168z"/>
  <path transform="translate(-305.93 -102.52)" d="m826.74 497.12c0.0332 0 0.06778-0.00139 0.101-0.00415a1.4155 1.4155 0 0 0 1.3127-1.5118l-15.301-216.05a1.3992 1.3992 0 0 0-1.5118-1.3127 1.4155 1.4155 0 0 0-1.3127 1.5118l15.301 216.05a1.4153 1.4153 0 0 0 1.4108 1.3168z"/>
  <path transform="translate(-305.93 -102.52)" d="m809.75 482.95c0.0332 0 0.06778-0.00138 0.101-0.00415a1.4155 1.4155 0 0 0 1.3127-1.5118l-15.301-216.05a1.3992 1.3992 0 0 0-1.5118-1.3127 1.4155 1.4155 0 0 0-1.3127 1.5118l15.301 216.05a1.4153 1.4153 0 0 0 1.4109 1.3168z"/>
 </g>
 <g fill="#3f3d56">
  <path transform="translate(-305.93 -102.52)" d="m462.15 290.46c31.927-10.186 67.546-7.4895 97.792 6.8609a128.77 128.77 0 0 1 24.302 14.968c2.1275 1.6697 5.155-1.317 3.0047-3.0047a139.19 139.19 0 0 0-97.705-28.652 133.7 133.7 0 0 0-28.523 5.7305c-2.5953 0.828-1.4861 4.932 1.1296 4.0974z"/>
  <path transform="translate(-305.93 -102.52)" d="m637.83 313.94c29.684-15.602 65.23-19.005 97.504-10.148a128.52 128.52 0 0 1 26.512 10.541c2.4118 1.2869 4.5608-2.3798 2.1447-3.6691-30.76-16.413-67.684-20.192-101.27-11.042a133.66 133.66 0 0 0-27.031 10.649c-2.4215 1.2728-0.27623 4.9416 2.1447 3.6691z"/>
  <path transform="translate(-305.93 -102.52)" d="m637.83 342.27c29.684-15.602 65.23-19.005 97.504-10.148a128.52 128.52 0 0 1 26.512 10.541c2.4118 1.2869 4.5608-2.3798 2.1447-3.6691-30.76-16.413-67.684-20.192-101.27-11.042a133.66 133.66 0 0 0-27.031 10.649c-2.4215 1.2728-0.27623 4.9416 2.1447 3.6691z"/>
  <path transform="translate(-305.93 -102.52)" d="m765.03 369.08a1.8212 1.8212 0 0 0-1.047-1.7613 139.35 139.35 0 0 0-80.222-15.026c-0.17335 0.01384-0.33287 0.04161-0.52006 0.05545h-0.00695a4.2545 4.2545 0 0 0-0.50622 0.07631 134.22 134.22 0 0 0-47.042 14.499 2.1443 2.1443 0 0 0-1.0471 1.8445v52.846a2.1442 2.1442 0 0 0 2.6905 2.0387c0.65182-0.1872 1.3036-0.3675 1.9693-0.54085a210.62 210.62 0 0 1 45.35-7.0937c0.32593-0.01384 0.65182-0.02772 0.99159-0.04161a237.57 237.57 0 0 1 37.41 1.3452 7.7996 7.7996 0 0 1 0.77663 0.0832c0.63793 0.06937 1.2898 0.14564 1.9277 0.22884 0.25656 0.02773 0.49925 0.05549 0.735 0.09709 2.4824 0.312 4.9441 0.66566 7.4127 1.0471q5.3462 0.85292 10.693 1.9c0.2219 0.0416 0.45074 0.09709 0.67954 0.13869 5.7207 1.1372 11.414 2.4547 17.079 3.9109a2.1528 2.1528 0 0 0 2.6905-2.0525v-53.511a0.17575 0.17575 0 0 0-0.01392-0.08316z"/>
 </g>
 <path transform="translate(-305.93 -102.52)" d="m687.09 355.17a6.9881 6.9881 0 0 0-5.0068-0.43986 5.9339 5.9339 0 0 0-3.3348 3.1363 15.083 15.083 0 0 0-1.0977 4.3141c-0.088 0.58389-0.0935 1.3206 0.4934 1.5932a1.2428 1.2428 0 0 0 1.2612-0.24972 3.7272 3.7272 0 0 0 0.73848-1.0303 11.215 11.215 0 0 1 9.4739-5.1508l1.5688 0.62532a18.58 18.58 0 0 0-4.0964-2.7982z" fill="#63dcb8"/>
 <g fill="#fff">
  <path transform="translate(-305.93 -102.52)" d="m704.07 367.35c-1.2174-1.7922-2.66-3.7058-4.9192-4.291-2.6163-0.67771-5.3039 0.66859-7.5836 1.9971a221.54 221.54 0 0 0-19.666 12.898l0.00687 0.06957 14.675-0.90083c3.5343-0.21695 7.1901-0.46382 10.313-1.952a9.7255 9.7255 0 0 1 3.6836-1.3716 6.1565 6.1565 0 0 1 4.2669 2.0557c6.7633 6.4106 8.7205 16.214 16.308 21.846a206.08 206.08 0 0 0-17.085-30.351z"/>
  <path transform="translate(-305.93 -102.52)" d="m685.64 415.97c-0.33958 0.01417-0.66567 0.02835-0.99142 0.04253-2.3653-0.84981-4.7873-1.6006-7.2377-2.2522-1.5866-0.42482-3.2011-0.80728-4.816-1.133-1.8272-0.39647-3.6683-0.70821-5.5097-0.97742a88.115 88.115 0 0 0-10.581-0.89217 0.19234 0.19234 0 1 1 0-0.38246c0.453 0 0.90635 0.01418 1.3455 0.04253a88.233 88.233 0 0 1 10.595 1.034c1.8272 0.29739 3.6544 0.65149 5.4675 1.0481 1.6429 0.36828 3.2858 0.77909 4.9007 1.2323q3.4629 0.97718 6.8268 2.2378z"/>
  <path transform="translate(-305.93 -102.52)" d="m726.49 417.73c-0.24068-0.04253-0.48171-0.07089-0.73656-0.09907-0.97725-0.80728-1.9687-1.5722-3.0026-2.3229-1.2892-0.93488-2.6205-1.813-3.9802-2.6345a70.671 70.671 0 0 0-9.4052-4.7875 93.786 93.786 0 0 0-15.892-5.0142 158.14 158.14 0 0 0-18.795-2.9461c-6.3175-0.65167-12.663-1.0481-19.008-1.4448-0.269-0.01418-0.28321-0.41064 0-0.39664 0.79327 0.05671 1.5866 0.09907 2.3936 0.15579 6.4164 0.39663 12.833 0.85 19.207 1.5724a146.42 146.42 0 0 1 18.767 3.2576 91.28 91.28 0 0 1 15.382 5.2832 69.942 69.942 0 0 1 8.2716 4.405c1.6854 1.0623 3.3145 2.1955 4.8724 3.3994 0.65184 0.50989 1.3033 1.02 1.9265 1.5722z"/>
  <path transform="translate(-305.93 -102.52)" d="m723.83 417.4a7.6953 7.6953 0 0 0-0.7791-0.08507c-0.29739-0.24068-0.6093-0.46736-0.92053-0.694a64.779 64.779 0 0 0-6.813-4.2634 72.166 72.166 0 0 0-6.5865-3.1586 92.525 92.525 0 0 0-15.892-5.014 158.11 158.11 0 0 0-18.796-2.9461c-6.3171-0.65166-12.663-1.0481-19.008-1.4448-0.269-0.02836-0.269-0.41082 0-0.39664 0.80746 0.05671 1.6004 0.09907 2.3937 0.15579 6.4164 0.39646 12.833 0.84981 19.207 1.5722a146.39 146.39 0 0 1 18.767 3.2578 90.804 90.804 0 0 1 15.382 5.2832c1.8698 0.84982 3.697 1.7705 5.4817 2.7761a57.987 57.987 0 0 1 7.5638 4.9574z"/>
  <path transform="translate(-305.93 -102.52)" d="m745.27 420.81c-0.2265-0.04254-0.45335-0.09908-0.67985-0.14161-0.25486-0.26921-0.49588-0.55242-0.73656-0.83581q-1.8269-2.1034-3.6119-4.2492c-4.6881-5.5806-9.1358-11.331-13.328-17.195q-5.3966-7.5212-10.241-15.34c-1.544-2.4646-3.0313-4.9574-4.4899-7.4787q-1.6998-2.9317-3.3145-5.878c-0.31157-0.5666-0.609-1.1332-0.90635-1.6998-0.69437-1.3315-1.3884-2.677-2.1246-3.9942a11.288 11.288 0 0 0-3.428-4.0793 5.0157 5.0157 0 0 0-2.4362-0.83564 7.3659 7.3659 0 0 0-3.5127 0.90635 114.45 114.45 0 0 0-22.28 13.668 107.68 107.68 0 0 0-18.102 17.889c-0.16979 0.19831-0.53842 0.01417-0.38246-0.19832 0.63731-0.7931 1.2888-1.5864 1.9403-2.3655a108.58 108.58 0 0 1 17.125-16.274c0.01418-0.01418 0.04253-0.02835 0.05671-0.04236 0.55225-0.43917 1.1048-0.864 1.6713-1.2748a115.92 115.92 0 0 1 10.935-7.1388q2.8892-1.6785 5.9063-3.1869c0.49553-0.25486 1.0056-0.50989 1.5153-0.75074 0.51006-0.25486 1.0201-0.49553 1.5298-0.73656a8.3381 8.3381 0 0 1 3.2436-0.89217c3.9377-0.05671 5.963 3.9093 7.3653 6.5862 0.43917 0.83581 0.89252 1.6714 1.3317 2.5071 1.6996 3.1586 3.4701 6.3031 5.3116 9.405 1.1187 1.9263 2.2802 3.8386 3.456 5.7365 1.6854 2.7054 3.4134 5.3823 5.2123 8.0453a0.01389 0.01389 0 0 0 0.01418 0.01418c2.0821 3.1444 4.2492 6.2321 6.4873 9.3058q5.7576 7.8822 12.068 15.411 2.1671 2.5919 4.4048 5.1132z"/>
  <path transform="translate(-305.93 -102.52)" d="m765.05 414.57v0.6515c-1.4022-1.6429-2.8328-3.2718-4.2492-4.9007q-0.89217-1.0198-1.7847-2.0396-3.7819-4.2918-7.606-8.5552c-2.5638-2.8328-5.1276-5.6656-7.7197-8.4843-0.62314-0.67985-1.2463-1.3597-1.8836-2.0396a14.663 14.663 0 0 0-1.6574-1.5866 6.15 6.15 0 0 0-2.0254-1.119 5.0775 5.0775 0 0 0-2.606-0.02818c-0.97758 0.22667-1.9123 0.58077-2.8612 0.87816-0.97759 0.32575-1.9406 0.63732-2.9179 0.94889-1.9548 0.63749-3.8951 1.275-5.85 1.9123a0.1936 0.1936 0 0 1-0.25486-0.11342 0.19745 0.19745 0 0 1 0.14178-0.269c0.4817-0.15578 0.97724-0.31156 1.4731-0.46752 1.9687-0.6515 3.9231-1.2888 5.8922-1.9261 0.97724-0.32592 1.9545-0.63749 2.9321-0.94906a8.7628 8.7628 0 0 1 2.8328-0.56659 6.4088 6.4088 0 0 1 4.1642 1.9546c0.609 0.5666 1.1616 1.1614 1.7138 1.7705q0.97723 1.0623 1.9548 2.1246 3.9302 4.2918 7.8041 8.6117 3.8882 4.3343 7.7055 8.6826 0.276 0.31875 0.55225 0.63749c1.4307 1.6145 2.8329 3.2436 4.2493 4.8723z"/>
 </g>
 <path transform="translate(-305.93 -102.52)" d="m694.74 358.26-0.3918 0.17132a10.691 10.691 0 0 0-8.6363-5.2285c-5.7989-0.41194-10.893 3.4526-11.356 8.614a8.5305 8.5305 0 0 0 1.7244 5.9379l-0.36368 0.215a8.8838 8.8838 0 0 1-1.7959-6.1838c0.48188-5.3749 5.787-9.3994 11.826-8.9705a11.133 11.133 0 0 1 8.9933 5.4446z" fill="#63dcb8"/>
 <g fill="#fff">
  <path transform="translate(-305.93 -102.52)" d="m666.09 368.7a10.459 10.459 0 0 0-9.525 0.60631 150.15 150.15 0 0 1 15.456 3.211c-2.1084-1.0998-3.7577-2.823-5.9312-3.8173z"/>
  <path transform="translate(-305.93 -102.52)" d="M656.53178,369.30322l-.57311.41464c.19385-.14513.39538-.2812.60241-.41Z"/>
  <path transform="translate(-305.93 -102.52)" d="m739.93 390.22a4.7884 4.7884 0 0 0-2.0627-1.5328l-0.80528 0.02827a85.054 85.054 0 0 0 24.329 24.758q-10.731-11.626-21.461-23.253z"/>
  <path transform="translate(-305.93 -102.52)" d="m673.79 371.71c-0.22844-0.22668-0.45546-0.45335-0.68539-0.68a19.891 19.891 0 0 0-6.2486-4.5724 10.001 10.001 0 0 0-3.798-0.78365 11.985 11.985 0 0 0-3.9435 0.76552c-0.59373 0.21113-1.1744 0.45075-1.7462 0.70592-0.65341 0.29273-1.2952 0.6049-1.934 0.91965q-1.7987 0.886-3.5506 1.8497-3.486 1.9177-6.7536 4.1281-1.6939 1.1463-3.3179 2.3678-1.5105 1.1347-2.9598 2.3302c-0.20662 0.16969-0.51514-0.10491-0.30851-0.27459 0.25466-0.21114 0.51223-0.421 0.7698-0.62821q1.0914-0.8782 2.2177-1.7227 2.0539-1.5427 4.2142-2.9662 3.3593-2.215 6.9499-4.1294 1.7943-0.95592 3.638-1.8315c0.37112-0.17616 0.74657-0.34844 1.1264-0.51164a19.281 19.281 0 0 1 2.6775-0.97017 10.644 10.644 0 0 1 4.044-0.35361 11.419 11.419 0 0 1 3.7311 1.1489 24.482 24.482 0 0 1 6.186 4.9324c0.18617 0.18651-0.12093 0.46241-0.30865 0.27588z"/>
 </g>
 <g fill="#3f3d56">
  <path transform="translate(-305.93 -102.52)" d="m462.15 318.79c31.927-10.186 67.546-7.4895 97.792 6.8608a128.77 128.77 0 0 1 24.302 14.968c2.1275 1.6697 5.155-1.317 3.0047-3.0047a139.19 139.19 0 0 0-97.705-28.652 133.7 133.7 0 0 0-28.523 5.7305c-2.5953 0.828-1.4861 4.932 1.1296 4.0974z"/>
  <path transform="translate(-305.93 -102.52)" d="m462.15 347.12c31.927-10.186 67.546-7.4895 97.792 6.8608a128.77 128.77 0 0 1 24.302 14.968c2.1275 1.6697 5.155-1.317 3.0047-3.0047a139.19 139.19 0 0 0-97.705-28.652 133.7 133.7 0 0 0-28.523 5.7305c-2.5953 0.828-1.4861 4.932 1.1296 4.0974z"/>
  <path transform="translate(-305.93 -102.52)" d="m462.15 375.45c31.927-10.186 67.546-7.4895 97.792 6.8608a128.77 128.77 0 0 1 24.302 14.968c2.1275 1.6697 5.155-1.317 3.0047-3.0047a139.19 139.19 0 0 0-97.705-28.652 133.7 133.7 0 0 0-28.523 5.7305c-2.5953 0.828-1.4861 4.932 1.1296 4.0974z"/>
  <path transform="translate(-305.93 -102.52)" d="m462.15 403.77c31.927-10.186 67.546-7.4895 97.792 6.8608a128.77 128.77 0 0 1 24.302 14.968c2.1275 1.6697 5.155-1.317 3.0047-3.0047a139.19 139.19 0 0 0-97.705-28.652 133.7 133.7 0 0 0-28.523 5.7305c-2.5953 0.828-1.4861 4.932 1.1296 4.0974z"/>
  <path transform="translate(-305.93 -102.52)" d="m462.15 432.1c31.927-10.186 67.546-7.4895 97.792 6.8608a128.77 128.77 0 0 1 24.302 14.968c2.1275 1.6697 5.155-1.317 3.0047-3.0047a139.19 139.19 0 0 0-97.705-28.652 133.7 133.7 0 0 0-28.523 5.7305c-2.5953 0.828-1.4861 4.932 1.1296 4.0974z"/>
 </g>
 <path transform="translate(-305.93 -102.52)" d="m577.17 244.88v79.397c0 1.3522-2.3577 2.4825-5.5404 2.7876-0.55473 0.05545-1.1372 0.08321-1.7405 0.08321a14.507 14.507 0 0 1-5.1452-0.83906 6.6285 6.6285 0 0 1-0.8876-0.423c-0.79051-0.46458-1.2482-1.0124-1.2482-1.6088v-85.52c2.5934 0.86678 5.0134 1.7752 7.2809 2.7182 2.635 1.0956 5.055 2.2328 7.2809 3.4047z" fill="#63dcb8"/>
 <rect x="299.68" y="169.59" width="2.0803" height="256.83" fill="#e6e6e6"/>
 <path transform="translate(-305.93 -102.52)" d="m793.35 479.08a22.02 22.02 0 0 1-16.65 6.75c-9.62-0.34-21.1-0.51-33.56-0.25l-0.07-0.06 54-70 2.33 46.67a22.022 22.022 0 0 1-6.05 16.89z" fill="#f2f2f2"/>
 <polygon points="352.99 621.21 350.11 644.59 347.91 662.36 347.03 669.53 334.51 669.53 334.51 663.16 334.5 642.08 334.5 621.21" fill="#ffb6b6"/>
 <polygon points="265.69 618.76 262.14 629.72 259.29 638.51 258.8 640.02 256.85 646.03 252.73 658.74 250.68 665.07 239.29 662.87 238.38 662.7 239.12 658.88 239.57 656.55 244.55 630.73 245.36 626.57 245.49 625.9 245.86 623.97 247.54 615.26 259.68 617.6 261.08 617.87" fill="#ffb6b6"/>
 <path transform="translate(-305.93 -102.52)" d="m677.73 584.5c-7.16 39.35-8.95 56.34-8.95 56.34s5.37 6.26 1.79 9.84 0 10.73 0 10.73l-8.05 86.75-6.48-1.05-15.61-2.51-5.63-0.91 3.58-81.38s-3.58-7.16-1.79-8.95-1.79-12.52-1.79-12.52l-4.47-84.96-27.73 93.01s2.69 3.58 0 6.26c-2.68 2.68-8.04 16.1-8.04 16.1l-16.49 57.7-1.4 4.9-8.6-1.61-9.36-1.76-1.72-0.31995-3.06-0.58-1.97-0.37-0.67-0.12-3.24-0.61 0.98-4.35 0.51-2.29 13.95-61.96 0.32-1.43 0.34-1.51s-1.79-4.47 0.89-7.16a6.9883 6.9883 0 0 0 1.79-6.26 2.4407 2.4407 0 0 1-0.24-0.3 3.7125 3.7125 0 0 1-0.64-1.46c-0.24-1.12-0.03-2.69 1.78-4.5a7.6359 7.6359 0 0 0 1.27-1.82c2.72-5.15 4.09-16.06 4.09-16.06s2.42-86.41 10.34-99.61a4.2687 4.2687 0 0 1 1.29-1.45c8.94-5.36 94.79 0 94.79 0s0.12 0.62 0.31 1.8c1.03 6.63 3.98 31-2.09 64.38z" fill="#2f2e41"/>
 <path transform="translate(-305.93 -102.52)" d="m674.92 425.75 2.5068-15.101 46.163 7.769 65.496 4.6861a9.8374 9.8374 0 1 1-1.6771 10.624l-40.17 2.703z" fill="#ffb6b6" data-name="Path 2938"/>
 <path transform="translate(-305.93 -102.52)" d="m640.41 415.29 3.2594-13.481s17.7-3.2582 31.694-0.14082l52.645 10.103-4.261 31.823z" fill="#63dcb8" data-name="Path 2946"/>
 <path transform="translate(-305.93 -102.52)" d="m518.22 526.3 29.453-63.984 21.494-45.269 18.641 10.971-58.031 105.32a9.8373 9.8373 0 1 1-12.071-6.9171q0.25479-0.0692 0.51308-0.12458z" fill="#ffb6b6" data-name="Path 2948"/>
 <path transform="translate(-305.93 -102.52)" d="m603.16 397.65-14.296-6.5592s-2.5346-0.87961-8.0013 6.6895-52.491 78.991-52.491 78.991l29.861 13.498z" fill="#63dcb8" data-name="Path 2949"/>
 <path transform="translate(-305.93 -102.52)" d="m675.1 785.96-18.61-12.86v-8.39l-2.65 0.16-13.4 0.8-3.53 0.21-2.44 29.22-0.03 0.41h8.79l0.08-0.41 1.49-7.89 3.81 7.89 0.2 0.41h23.32a5.3434 5.3434 0 0 0 2.04-0.41 5.2369 5.2369 0 0 0 0.93005-9.14z" fill="#2f2e41"/>
 <path transform="translate(-305.93 -102.52)" d="M575.84041,786.735l-8.11005-8.84-5.66-6.18-.93-1.02-.14-.15-.45-.49,1.87-8.18-3.76-.62-13.16-2.19-.71-.11-1.4-.24-.32-.05-4.49,14.15-4.07,12.79-.44,1.4,5.41,1.23,3.16.72,1.56-3.58.17-.38,1.02-2.35v-.01l.63-1.42,2.07,8.98.36.08.05.01,1.27.29,2.48.57,17.34,3.96,1.23.28a5.26176,5.26176,0,0,0,6.27-3.95A5.22555,5.22555,0,0,0,575.84041,786.735Z" fill="#2f2e41"/>
 <path transform="translate(-305.93 -102.52)" d="m656.1 356.39a29.057 29.057 0 0 1-19.67 14.56c-0.46 0.1-0.91992 0.18-1.3901 0.25a29.125 29.125 0 1 1 21.06-14.81z" fill="#ffb6b6"/>
 <path transform="translate(-305.93 -102.52)" d="m644.52 316.86c-9.5298-6.5541-17.922-7.5524-24.815-5.6935a9.062 9.062 0 0 0-3.625-3.2189c-5.3765-13.547-21.738-21.683-35.78-17.728-14.132 3.9805-23.883 19.635-21.224 34.074 1.648 8.9503 7.2808 16.701 9.5464 25.515 4.3858 17.063-6.313 36.608-23.05 42.108 15.847 3.1819 33.29-6.4977 38.975-21.628 2.7612-7.3491 2.9277-15.373 3.2788-23.216a76.969 76.969 0 0 1 1.9787-16.076 34.349 34.349 0 0 1 2.5584-6.8452 23.424 23.424 0 0 1 11.21-10.876 8.9412 8.9412 0 0 0 1.3057 8.0494c-3.7163 4.6554-5.7393 9.6901-5.7393 12.705-7.7202 14.11 3.3198 26.23 17.43 33.95a28.908 28.908 0 0 0 18.47 3.22l0.59033-2.52 0.79981 2.27 2.6699 7.61q4.6201 2.235 9.1602 4.9c-1.1499-5.4-2.0801-10.79-2.7202-16.06-0.88623-7.1728 2.2031-17.851 4.4316-24.345a38.331 38.331 0 0 0 2.0986-12.44v-0.18512l2.1699 6.97 7.8999-3.37c-1.4697-8.4301 0-18-17.62-17.17z" fill="#2f2e41"/>
 <path transform="translate(-305.93 -102.52)" d="m583.82 510.27a25.548 25.548 0 0 0 0-12.52c-1.7886-6.2601 1.7886-8.943 1.7886-8.943l0.89428-96.585c3.7783-3.7783 13.901-3.8398 19.564-3.5459v-4.2534a5.9056 5.9056 0 0 1 5.9055-5.9055h26.189a5.9056 5.9056 0 0 1 5.9055 5.9055v5.0984l7.6812 0.12085c13.376 0.99634 25.079 14.206 25.079 14.206l-11.626 44.715s3.5772 36.666 8.0487 41.138c4.4716 4.4714 2.6829 7.1543 2.6829 7.1543s-2.6829 9.8374 2.6829 13.415c5.3658 3.5773 1.7886 9.8374 1.7886 9.8374s-96.585 1.7886-99.268-0.89428c-2.6829-2.6828 2.6828-8.9431 2.6828-8.9431z" fill="#63dcb8"/>
 <path transform="translate(-305.93 -102.52)" d="m761.78 796.3a1.1865 1.1865 0 0 1-1.19 1.19h-280.29a1.19 1.19 0 1 1 0-2.38h280.29a1.1865 1.1865 0 0 1 1.19 1.19z" fill="#ccc"/>
</svg>
