<svg width="226" height="362" viewBox="0 0 226 362" fill="none" xmlns="http://www.w3.org/2000/svg">
<g clip-path="url(#clip0_5_2)">
<path d="M90.638 59.3882C87.318 70.9274 86.312 74.8416 83.2435 88.16L81.6339 95.2259L80.1751 92.8875L78.7163 90.4984L79.7727 86.0758C80.6278 82.5175 80.829 80.4333 80.6781 76.0108C80.5775 72.9099 80.5272 66.3524 80.5272 61.4216C80.5272 56.4399 80.5272 52.424 80.4266 52.5257C80.3763 52.5765 79.6218 56.0332 78.7163 60.2524C76.9054 68.7416 76.3018 77.3325 77.0563 83.9917C77.3078 86.1775 77.4588 87.9567 77.3582 87.9567C77.3078 87.9567 76.8551 87.3975 76.4024 86.6858C75.7485 85.6692 75.4467 83.5341 75.1952 77.8916C74.7927 69.7583 74.843 69.9108 70.2655 61.269C69.0583 59.0324 68.5552 57.2532 68.3037 54.6607C67.851 50.1365 67.2474 51.814 67.1971 57.7107C67.1468 62.9465 67.851 67.3182 69.6619 72.7066C70.4164 75.0958 71.0201 77.0783 70.9698 77.1291C70.9195 77.1799 69.1086 75.6041 66.8953 73.6216C63.1729 70.3683 45.9695 57.914 45.6174 58.219C45.3156 58.4732 55.6275 71.6899 58.7966 75.0958C61.8147 78.4 66.7444 81.8058 71.7746 84.1441C74.4406 85.3642 77.2072 87.855 77.2072 89.0242C77.2072 89.3292 76.2515 88.8717 75.0442 88.0075C71.0704 85.2625 66.8953 83.4325 61.5632 82.1108C56.1809 80.7891 48.0319 79.315 46.2713 79.315C45.1144 79.3658 62.1668 86.8892 67.3983 88.6683C69.3601 89.3292 72.6297 90.295 74.7424 90.7525L78.5654 91.6675L80.3763 95.3784C81.3823 97.4625 82.0866 99.14 81.9357 99.14C81.7848 99.14 78.163 97.2084 73.8873 94.8192C69.6116 92.43 64.6317 89.8883 62.8208 89.1767C59.4505 87.9058 37.5187 82.1108 37.2169 82.4666C37.066 82.6191 49.8931 88.6175 61.362 93.7009C63.8771 94.8192 69.8128 97.1575 74.6418 98.8859C83.2938 102.038 84.652 102.851 84.7526 105.037C84.7526 105.393 81.986 104.376 78.6157 102.851C69.8128 98.8859 67.4486 98.2251 57.8912 96.8017C48.4343 95.3784 44.1083 94.0059 33.9975 89.1767C30.8285 87.6517 28.1122 86.4317 27.9613 86.4317C27.8104 86.4317 29.2691 87.6008 31.1806 89.0242C35.7078 92.3284 41.0399 95.0734 47.3277 97.2592C50.044 98.2251 54.5712 100.208 57.3378 101.631C64.4305 105.342 74.2897 108.138 83.4447 109.103L86.7144 109.459L87.7707 111.95C88.3744 113.373 88.7265 114.593 88.6259 114.746C88.475 114.848 83.2938 113.272 77.1066 111.137C64.3801 106.816 58.7966 105.545 49.0379 104.732C45.3156 104.427 38.8769 103.817 34.7521 103.41C26.5528 102.648 26.1504 102.597 26.4522 102.902C26.5528 103.003 31.6333 104.427 37.7199 106.003C43.8065 107.578 51.1506 109.51 54.0682 110.323C62.3178 112.56 72.177 114.695 81.2314 116.169C85.8089 116.932 89.7828 117.796 90.0846 118.152C90.7386 118.813 94.0082 127.048 93.7567 127.302C93.6561 127.404 88.3744 125.116 81.986 122.218C75.6479 119.321 68.0522 116.169 65.1347 115.203C60.5572 113.678 26.5528 106.409 26.1504 106.867C25.8989 107.121 53.0621 117.135 66.3922 121.71C73.0322 123.998 82.2375 126.895 86.8653 128.115C94.4609 130.149 95.3664 130.504 95.7688 131.674C96.0203 132.385 96.8251 134.469 97.5294 136.35L98.7869 139.756L95.9197 138.434C94.3603 137.672 89.2295 135.181 84.6017 132.843C70.2655 125.675 67.0965 124.557 51.05 120.998C44.8125 119.626 37.1666 117.898 33.9975 117.186C30.8788 116.474 28.2128 115.915 28.1122 116.017C28.0116 116.118 30.1243 117.084 32.8406 118.152C35.5066 119.219 42.9514 122.269 49.2895 124.913C67.3983 132.436 74.5412 135.079 87.7707 139.248L100.095 143.162L101.805 147.839C102.711 150.431 103.415 152.668 103.264 152.769C103.163 152.922 95.467 149.821 86.2114 145.907C69.9637 139.095 69.1589 138.841 62.1165 137.57C54.4203 136.249 51.2512 135.13 35.7078 128.115C25.6474 123.591 24.3898 123.032 24.3898 123.235C24.3898 123.337 26.0498 124.404 28.0619 125.574C30.0237 126.794 33.2933 128.827 35.2048 130.149C39.9835 133.402 45.2653 136.249 51.5028 139.044C54.4203 140.315 57.4384 141.891 58.2936 142.552C61.4123 144.941 66.7947 147.991 71.3219 149.974C76.8048 152.312 82.6902 153.837 95.0646 156.023C100.045 156.938 104.421 157.802 104.823 158.005C105.175 158.209 106.131 160.14 106.936 162.326C108.344 166.291 108.344 166.291 107.238 165.935C106.634 165.783 98.3342 162.682 88.7768 159.124C71.2716 152.617 69.2595 152.007 55.5772 149.719C52.9615 149.262 45.9695 147.889 40.0338 146.619C34.0982 145.399 29.1685 144.433 29.0679 144.585C28.9673 144.687 29.8728 144.992 31.1303 145.348C35.1545 146.364 49.1888 151.092 54.1185 153.074C56.7845 154.142 61.3117 156.531 64.1789 158.412C74.6418 165.376 80.7787 167.257 108.747 172.086C110.206 172.34 110.407 172.645 111.614 176.255C112.318 178.39 112.872 180.22 112.771 180.27C112.67 180.372 110.507 179.762 107.892 178.949C100.246 176.509 90.8895 174.018 86.2617 173.154C83.8975 172.747 76.4024 172.137 69.6116 171.832C59.5008 171.425 56.5833 171.12 53.7664 170.256C48.8367 168.731 41.9453 165.224 36.4624 161.462C33.8466 159.632 31.583 158.259 31.4824 158.412C30.6776 159.225 41.3417 168.07 46.9252 171.222C52.4585 174.323 56.2815 175.34 65.1347 176.204C75.0945 177.17 79.2193 178.237 84.5011 181.287C88.1732 183.422 92.2979 184.083 103.666 184.388L114.33 184.693L116.192 190.488C117.198 193.69 117.952 196.486 117.852 196.74C117.701 197.096 114.28 195.876 90.9398 187.133C78.1127 182.355 72.5794 181.338 51.05 179.762C42.0459 179.152 34.6012 178.695 34.5006 178.745C34.2491 178.949 34.3497 179 43.3538 181.185C52.6094 183.422 61.3117 186.269 73.4346 190.996C91.141 197.96 92.9519 198.418 109.803 200.35C114.984 200.909 119.361 201.57 119.511 201.722C119.914 202.231 122.077 210.008 121.876 210.262C121.775 210.364 112.972 207.111 102.358 203.095C80.7284 194.809 80.829 194.86 68.6558 192.674C63.8268 191.81 54.0682 189.878 47.0762 188.353C40.0338 186.828 33.9975 185.557 33.746 185.557C33.4442 185.608 36.1605 186.523 39.732 187.641C56.2815 192.725 66.5935 196.893 72.6297 200.96C84.5011 208.991 90.8392 211.228 113.928 215.498L124.19 217.379L125.548 222.056C126.302 224.648 126.805 226.732 126.705 226.732C126.604 226.732 123.435 225.309 119.612 223.631C109.149 218.904 105.779 217.786 96.2718 215.854C79.9739 212.499 79.2193 212.448 56.8348 212.245C43.8065 212.092 36.8648 212.194 37.9714 212.499C38.9272 212.753 42.3477 213.109 45.5168 213.261C56.03 213.821 64.7323 216.21 78.0121 222.157C89.1792 227.19 99.5918 229.477 123.385 232.324C129.069 233.036 129.019 232.985 129.773 237.051L130.125 238.831L125.648 237.865C123.234 237.306 117.147 235.831 112.167 234.611C98.636 231.256 95.3664 230.799 81.2314 230.291C74.1891 230.036 64.682 229.376 60.1045 228.766C52.0058 227.749 37.6193 225.512 35.0036 224.851C34.2994 224.699 33.7963 224.699 33.9472 224.851C34.4 225.309 51.9052 230.596 55.3257 231.307C59.4002 232.121 67.2977 234.408 74.2394 236.848C90.1852 242.389 98.133 243.66 120.719 244.27C126.805 244.473 131.836 244.677 131.936 244.778C132.087 244.88 134.552 253.674 134.552 254.03C134.552 254.081 132.942 253.471 130.98 252.657C129.019 251.793 125.296 250.472 122.681 249.607L117.952 248.082H103.465C88.1732 248.082 79.0181 248.692 61.6135 250.878C47.1768 252.708 46.5731 253.064 57.4887 253.115C66.1407 253.166 69.7122 253.522 81.4829 255.453C86.312 256.267 115.588 257.741 126.453 257.741C135.759 257.741 135.709 257.741 136.665 261.35C137.268 263.688 137.319 264.349 136.815 264.349C136.463 264.349 132.49 263.434 127.962 262.265C119.864 260.232 119.612 260.181 112.419 260.384C104.069 260.638 102.61 261.045 95.6682 265.315C91.5937 267.806 81.2314 275.431 77.9618 278.328L76.4527 279.701L78.2133 278.684C79.169 278.125 83.495 275.583 87.7707 273.042C98.4348 266.687 99.8433 266.179 106.383 266.179C110.407 266.179 112.721 266.484 116.192 267.45C120.216 268.517 121.725 268.67 129.673 268.67H138.626L139.129 270.703C139.431 271.822 139.834 273.55 140.135 274.516C140.387 275.482 140.588 276.448 140.588 276.6C140.588 276.753 138.828 276.6 136.715 276.244C130.628 275.227 120.518 275.38 115.336 276.549C109.652 277.82 108.495 278.481 105.276 282.243C101.755 286.36 100.9 287.275 99.0888 288.648L97.5797 289.817L99.6924 288.749C105.88 285.75 112.167 284.174 118.304 284.174C120.92 284.174 125.95 283.513 131.836 282.395C137.017 281.378 141.393 280.768 141.594 280.972C141.997 281.429 146.524 300.085 147.882 306.795C148.335 309.032 148.787 310.913 148.888 311.014C149.19 311.319 152.661 305.677 152.661 304.863C152.661 304.253 144.21 274.567 143.305 272.025C143.103 271.415 144.562 271.364 152.812 271.618C160.105 271.872 164.13 271.771 168.657 271.212C180.88 269.687 181.534 269.483 194.814 262.875C201.504 259.52 206.987 256.622 206.987 256.419C206.987 256.267 206.585 256.267 206.132 256.47C201.806 258.147 181.886 264.044 179.321 264.4C177.51 264.654 171.776 264.857 166.494 264.857C157.892 264.857 156.232 265.01 149.643 266.382C145.618 267.196 142.298 267.907 142.248 267.907C142.047 267.907 140.588 262.672 140.588 261.96C140.588 261.604 147.329 257.893 155.578 253.725C163.778 249.557 172.279 244.982 174.391 243.558C176.605 242.084 182.49 237.001 188.023 231.714C193.355 226.58 201.202 219.209 205.478 215.346C217.199 204.721 217.45 204.315 208.245 211.686C202.359 216.362 195.921 219.971 184.653 224.902C174.945 229.121 170.267 232.324 150.548 248.387L139.129 257.69L138.073 254.03C137.469 251.997 136.815 249.709 136.514 248.896C136.262 248.082 136.061 247.371 136.061 247.269C136.061 247.117 149.441 238.729 156.685 234.357C167.5 227.851 175.146 221.801 179.321 216.566C183.245 211.584 196.927 192.775 196.927 192.318C196.927 192.115 191.897 196.995 185.76 203.196L174.542 214.431L163.224 219.971C150.347 226.275 147.127 228.613 139.482 236.95C136.966 239.695 134.753 241.881 134.602 241.728C134.2 241.322 131.081 230.697 131.031 229.731C131.031 228.867 138.576 225.156 150.397 220.124C156.484 217.531 164.079 213.617 167.5 211.33C168.908 210.415 173.737 206.348 178.315 202.332C182.892 198.265 190.337 191.86 194.864 188.099C206.132 178.745 207.239 177.678 200.448 182.558C194.009 187.235 187.218 190.64 176.152 194.91C165.538 198.977 159.955 202.383 140.538 216.871C134.703 221.191 129.773 224.597 129.572 224.445C129.119 224.191 127.761 219.666 128.063 219.463C128.767 218.955 142.298 210.567 147.127 207.67C155.327 202.739 162.52 197.808 165.639 194.961C167.098 193.64 170.367 190.132 172.882 187.133C179.723 179.152 188.275 169.494 195.82 161.309C199.492 157.294 202.41 154.04 202.259 154.04C202.058 154.04 199.392 156.48 196.273 159.53C189.231 166.342 183.043 170.51 169.512 177.576C161.564 181.745 155.729 186.574 137.972 203.908L126.554 215.041L125.296 210.821C124.592 208.483 123.938 206.094 123.888 205.484C123.787 204.671 125.497 203.247 132.791 198.265C143.606 190.844 143.808 190.64 155.729 179.915C160.91 175.238 166.544 170.409 168.305 169.189C172.228 166.393 184.2 159.124 193.255 154.04C196.927 151.956 199.844 150.228 199.794 150.126C199.241 149.567 150.498 173.916 145.618 177.17C140.588 180.525 129.773 192.47 124.642 200.401C123.938 201.468 123.234 202.332 123.033 202.332C122.731 202.332 119.461 191.352 119.461 190.285C119.461 189.98 122.681 187.336 126.654 184.49C152.057 165.986 156.232 161.564 168.104 140.925C176.253 126.794 182.943 113.882 182.138 113.882C182.037 113.882 179.271 117.694 176.001 122.371C171.474 128.776 168.053 132.894 161.967 139.299C157.54 143.924 151.051 150.99 147.58 155.057C141.846 161.716 118.858 185.049 118.002 185.049C117.65 185.049 114.733 176.407 115.035 176.204C116.091 175.39 140.035 155.87 143.606 152.871C149.542 147.839 156.031 140.722 159.099 135.842C160.407 133.809 165.035 126.59 169.462 119.829C173.838 113.068 178.013 106.613 178.717 105.494L179.975 103.461L178.768 104.478C178.114 104.986 173.737 109.256 169.009 113.882C164.331 118.508 155.126 127.505 148.586 133.859C136.212 145.856 130.93 151.6 120.467 164.461C117.097 168.63 114.129 172.137 113.878 172.239C113.676 172.34 112.872 170.46 112.117 168.121L110.759 163.851L121.071 151.448C139.331 129.437 140.437 127.709 147.53 111.594C149.995 106.003 153.667 97.7675 155.679 93.2942C161.363 80.5858 161.413 80.6875 155.176 89.7358C152.862 93.0909 146.272 102.495 140.538 110.628C128.365 127.861 123.888 134.825 116.594 147.839C113.676 153.074 110.859 158.005 110.407 158.768L109.552 160.242L107.288 153.989L105.024 147.788L114.481 135.74C128.214 118.203 128.113 118.355 137.52 96.1409C140.89 88.2108 143.757 81.5008 143.908 81.2466C144.059 81.0433 144.059 80.84 143.908 80.84C143.506 80.84 119.511 117.084 116.091 122.778C114.431 125.574 111.061 131.572 108.646 136.147C106.232 140.722 104.069 144.28 103.817 144.026C103.364 143.569 100.346 135.944 100.346 135.283C100.346 135.029 104.572 128.471 109.703 120.643C114.884 112.865 119.511 105.494 120.065 104.223C120.618 102.953 122.178 98.3775 123.586 94.0567C124.994 89.7358 127.66 81.8058 129.572 76.4174C131.483 71.0799 133.043 66.5049 133.043 66.2507C133.043 66.0474 131.735 68.6908 130.125 72.1983C125.9 81.3991 122.127 88.0583 115.487 98.1742C108.998 107.985 105.276 115 101.604 124.303C100.246 127.658 99.0385 130.555 98.8372 130.759C98.5857 131.114 94.8131 122.828 94.8131 121.913C94.8131 121.71 97.7306 116.017 101.352 109.205C106.886 98.6826 108.093 95.9884 109.451 91.0067C110.306 87.8042 112.369 80.3825 113.978 74.5366C115.638 68.6908 116.845 63.8107 116.745 63.7091C116.644 63.6074 116.091 64.9799 115.437 66.7082C113.173 73.1641 110.155 79.8233 104.169 91.7692C98.4851 103.003 97.5294 105.393 93.4549 117.948C93.2537 118.609 90.2859 112.916 90.2859 111.798C90.2859 111.594 93.6561 105.189 97.7809 97.6151C102.66 88.6683 105.377 83.1275 105.578 81.7041C105.779 80.535 107.439 74.3333 109.35 67.9791C111.212 61.6249 112.62 56.5924 112.419 56.7957C111.312 58.0665 99.0888 85.2117 95.0143 95.48C92.3985 102.088 90.0343 108.087 89.7325 108.798C89.1792 110.018 89.1289 109.968 87.4689 106.663L85.8089 103.308L91.0907 91.6675C94.8131 83.585 96.7245 78.7558 97.3785 75.7566C97.8815 73.3674 99.2397 67.8774 100.296 63.5566C101.403 59.2357 102.258 55.6774 102.207 55.5757C101.855 55.2707 91.4931 82.8225 88.7768 91.2608C87.0665 96.5475 85.4568 101.072 85.3059 101.326C85.1047 101.529 84.4005 100.563 83.7465 99.1909L82.5896 96.6492L85.4065 90.3967C90.1852 79.62 91.3422 75.8074 91.7949 68.8941C92.0464 65.5391 92.7004 59.4899 93.304 55.5249C93.9076 51.509 94.31 48.1031 94.1591 48.0015C94.0585 47.8998 92.4992 52.9832 90.638 59.3882Z" fill="#7CFFE0"/>
</g>
<defs>
<clipPath id="clip0_5_2">
<rect width="198" height="275" fill="white" transform="translate(17 48)"/>
</clipPath>
</defs>
</svg>
